# xmcd
#
# Track frame offsets:
#	150
#	15398
#	29420
#	44888
#	55863
#	74883
#	97670
#	115690
#	127890
#	141818
#	156470
#	173768
#	193208
#	212403
#	228310
#	238590
#	252025
#	267605
#
# Disc length: 3762 seconds
#
# Revision: 0
# Processed by: cddbd v1.5.1PL2 Copyright (c) Steve Scherf et al.
# Submitted via: dBpowerAMP V4.0
#
DISCID=010eb012
DTITLE=Shawn Cuddy - Can We Go Round Again
DYEAR=2001
DGENRE=Country
TTITLE0=My Own Washing
TTITLE1=Two Little Orphans
TTITLE2=Treat my Daughter Kindly
TTITLE3=Sweet Gypsy Rose
TTITLE4=Patches
TTITLE5=Counties Selection (Among the Wicklow Hills, My Old Town on the Foyle, 5000 miles from Sligo)
TTITLE6=In my Fathers House
TTITLE7=Mama's Roses
TTITLE8=Five Little Fingers
TTITLE9=Whiskey on a Sunday
TTITLE10=Why Don't we Listen to the Children
TTITLE11=Counties Selection (My Heart Skips a Beat, Tiger by the Tail, Fooling Round)
TTITLE12=Can We Go Round Again
TTITLE13=Miles to Laois
TTITLE14=The Gypsy Rover
TTITLE15=The Greatest Gift
TTITLE16=She is my Treasure
TTITLE17=Then I Kissed Her
EXTD=
EXTT0=
EXTT1=
EXTT2=
EXTT3=
EXTT4=
EXTT5=
EXTT6=
EXTT7=
EXTT8=
EXTT9=
EXTT10=
EXTT11=
EXTT12=
EXTT13=
EXTT14=
EXTT15=
EXTT16=
EXTT17=
PLAYORDER=
